<?xml version="1.0" encoding="utf-8"?><svg data-name="Layer 1" xmlns="http://www.w3.org/2000/svg" viewBox="0 0 512 512" width="512" height="512"><path d="M433.17 216.13c3.9 10.54 6 22.68 6 36.47 0 62-50.78 112.47-113.2 112.47v35.1c81.77 0 148.29-66.2 148.29-147.57 0-90.3-52.15-132.79-108.3-132.79-52.11 0-92.5 42.24-92.5 88.65a84 84 0 0 0 84 84c46.42 0 86.59-37.62 86.59-84zM197.5 216.13c3.91 10.54 6 22.68 6 36.47 0 62-50.79 112.47-113.2 112.47v35.1c81.77 0 148.29-66.2 148.29-147.57 0-90.3-52.16-132.79-108.3-132.79-52.11 0-92.5 42.24-92.5 88.65a84 84 0 0 0 84 84c46.41 0 86.58-37.62 86.58-84z"/></svg>