<?xml version="1.0" encoding="utf-8"?><svg data-name="Layer 1" xmlns="http://www.w3.org/2000/svg" viewBox="0 0 512 512" width="512" height="512"><path d="M384.91 201.38a21 21 0 1 0-26.52 32.4l-62.54 62.54a206.75 206.75 0 0 0-52.15 87l-118.57-50.7c5.09-24.42 17-47.28 33.92-64.2l70.67-70.67a212.6 212.6 0 0 0 17.76-20.21 21 21 0 1 0 21.72-34.73 205.13 205.13 0 0 0 12.66-32.05l118.21 50.67a133.11 133.11 0 0 1-15.16 39.93M248.55 50.74A165.34 165.34 0 0 1 200 168l-70.7 70.69c-30 30-49 74.72-49 120.52L277 443.34a165.29 165.29 0 0 1 48.6-117.28l70.67-70.67c30-30 48.57-74.72 48.57-120.52z"/><path d="M325.62 170.69A21 21 0 1 0 335 198.9a21 21 0 0 0-9.39-28.21"/></svg>