<?xml version="1.0" encoding="utf-8"?><svg data-name="Layer 1" xmlns="http://www.w3.org/2000/svg" viewBox="0 0 512 512" width="512" height="512"><path d="M247.74 268.44h32v106.82h-32zM183.05 268.44h32v106.82h-32zM312.44 268.44h32v106.82h-32z"/><path d="M457.65 203.43A80.84 80.84 0 0 0 377 122.61h-34.15a80.68 80.68 0 0 0-158.21 0h-34.11a80.85 80.85 0 0 0-80.7 80.82v16h48.53v236.85h290.77V219.43h48.52zM263.74 89.79a48.76 48.76 0 0 1 46 32.82h-92a48.76 48.76 0 0 1 46-32.82zm113.39 334.49H150.36V219.43h226.77zm32-236.85H104.52a48.79 48.79 0 0 1 46-32.82H377a48.79 48.79 0 0 1 46 32.82z"/></svg>