<?xml version="1.0" encoding="utf-8"?><svg data-name="Layer 1" xmlns="http://www.w3.org/2000/svg" viewBox="0 0 512 512" width="512" height="512"><path d="M480.63 127.06a175.05 175.05 0 0 1-50.33 13.81 88 88 0 0 0 38.53-48.46 176.61 176.61 0 0 1-55.69 21.28 87.72 87.72 0 0 0-149.36 79.91A248.85 248.85 0 0 1 83.14 102a87.73 87.73 0 0 0 27.12 117 87.62 87.62 0 0 1-39.7-11v1.1a87.74 87.74 0 0 0 70.3 85.94 88.55 88.55 0 0 1-23.09 3.07 83.94 83.94 0 0 1-16.5-1.63 87.7 87.7 0 0 0 81.86 60.88 175.91 175.91 0 0 1-108.86 37.47 184.87 184.87 0 0 1-20.9-1.21 247.67 247.67 0 0 0 134.35 39.44c161.23 0 249.37-133.55 249.37-249.37l-.3-11.35a174.94 174.94 0 0 0 43.84-45.28z"/></svg>