<?xml version="1.0" encoding="utf-8"?><svg data-name="Layer 1" xmlns="http://www.w3.org/2000/svg" viewBox="0 0 920 512" width="920" height="512"><path d="M822.76 102.69V308c0 39.2-32.33 71.21-72.15 71.21H530.9a105.06 105.06 0 0 0-70.9 27.21 105.79 105.79 0 0 0-70.9-27.17H168.92A71.34 71.34 0 0 1 97.4 308V102.69zm-351 323.25a83.4 83.4 0 0 1 59.34-24.52h219.51c52 0 94.32-41.85 94.32-93.38V80.36H75.07v227.53c0 51.53 42 93.38 93.85 93.38H389.1a83.87 83.87 0 0 1 59.34 24.52l11.72 11.71z"/><path d="M738.28 196.23c0 6.87-5.47 11.87-12.34 11.87s-12.34-5-12.34-11.87 5.47-11.87 12.34-11.87a11.52 11.52 0 0 1 12.34 11.87m-23.12 97h21.4v-76h-21.4zm-38.41-45.93l28 45.91h-23.32l-18.74-30.45-10.15 12.8v17.65h-21.23V183.9h21.23v50.43a185.87 185.87 0 0 1-1.09 18.74h.47s5-8.27 9.21-14.21l16.24-21.7h25zm-67-2.81c0-18.9-9.22-29.21-23.9-29.21-12.49 0-19.05 7.34-22.8 14.37h-.46l1.09-12.49h-21.23v76h21.24v-45.08c0-8.75 5.15-14.84 13.12-14.84s11.4 5.31 11.4 15.46v44.51h21.39l.16-48.72zM522 196.23c0 6.87-5.47 11.87-12.34 11.87s-12.34-5-12.34-11.87 5.47-11.87 12.34-11.87A11.44 11.44 0 0 1 522 196.23m-23.12 97h21.4v-76h-21.4zM462 272c0-6.09-8.43-7.34-18.27-10.15-11.4-3-25.77-8.75-25.77-23.27s13.75-23.42 30-23.42c15.14 0 29 7.18 34.82 17.33l-18.27 10.31a16 16 0 0 0-15.93-12c-5.47 0-10 2.35-10 6.87 0 5.78 10 6.41 21.23 10 11.87 3.75 22.8 9.21 22.8 23.11 0 15.3-14.21 24.36-30.6 24.36-17.81 0-31.86-7.5-38.11-19.68L432.49 265c2.34 8.28 9.05 14.52 19.2 14.52 6.09 0 10.31-2.49 10.31-7.49m-67.62-87.45H373v87.61c0 7.8 1.72 13.58 5 17.17 3.43 3.59 8.74 5.31 16.08 5.31a42.24 42.24 0 0 0 7.65-.78 24.85 24.85 0 0 0 6.41-2.34l1.86-14.43a19.34 19.34 0 0 1-4.53 1.25 20.09 20.09 0 0 1-4.53.31c-2.81 0-4.06-.78-5-2.18-1.09-1.41-1.56-3.91-1.56-7.5v-84.48zm-71.18 46.01c-7.8 0-14.21 5.62-15.92 15.93h30c.16-9.06-5.78-15.93-14.06-15.93m32.95 30.29H307c.94 12.34 7.81 18.43 16.71 18.43 8 0 13.43-5.31 14.68-12.49l18 10.15c-5.31 9.68-16.71 18.11-32.64 18.11-21.23 0-36.85-14.83-36.85-39.82 0-24.83 15.93-39.82 36.38-39.82s34.05 14.52 34.05 35.14a59.31 59.31 0 0 1-1.1 10.3m-108.92 32.33h22.18V188.58h-22.18V230h-41.69v-41.26h-22.18v104.47h22.18V250h41.69z"/></svg>