<?xml version="1.0" encoding="utf-8"?><svg data-name="Layer 1" xmlns="http://www.w3.org/2000/svg" viewBox="0 0 512 512" width="512" height="512"><path d="M380.74 407.85a27.61 27.61 0 1 1 27.6-27.62 27.65 27.65 0 0 1-27.6 27.62M132.26 283.6a27.6 27.6 0 1 1 27.61-27.6 27.63 27.63 0 0 1-27.61 27.6m248.48-179.45a27.61 27.61 0 1 1-27.61 27.62 27.64 27.64 0 0 1 27.61-27.62m0 207.07A68.82 68.82 0 0 0 331 332.37L200.4 267a68.55 68.55 0 0 0 0-22l130.68-65.29a69 69 0 1 0-19.36-47.91 70.73 70.73 0 0 0 .85 10.86L181.81 208a69 69 0 1 0 0 96l130.74 65.43a69 69 0 1 0 68.17-58.22"/></svg>