<?xml version="1.0" encoding="utf-8"?><svg data-name="Layer 1" xmlns="http://www.w3.org/2000/svg" viewBox="0 0 512 512" width="512" height="512"><path d="M339.43 148.31L256 231.73l-83.43-83.42-25.71 25.72 83.42 83.42-83.42 83.43 25.71 25.72L256 283.17l83.43 83.43 25.71-25.72-83.42-83.43 83.42-83.42-25.71-25.72z"/><path d="M256 39.22c-120.53 0-218.23 97.71-218.23 218.23S135.47 475.69 256 475.69 474.23 378 474.23 257.45 376.53 39.22 256 39.22zm0 400.09c-100.28 0-181.86-81.58-181.86-181.86S155.72 75.59 256 75.59s181.86 81.58 181.86 181.86S356.28 439.31 256 439.31z"/></svg>